<?xml version="1.0" standalone="no"?>
<!DOCTYPE svg PUBLIC "-//W3C//DTD SVG 20010904//EN"
 "http://www.w3.org/TR/2001/REC-SVG-20010904/DTD/svg10.dtd">
<svg version="1.0" xmlns="http://www.w3.org/2000/svg"
 width="31.000000pt" height="54.000000pt" viewBox="0 0 31.000000 54.000000"
 preserveAspectRatio="xMidYMid meet">
<metadata>
Created by potrace 1.10, written by Peter Selinger 2001-2011
</metadata>
<g transform="translate(0.000000,54.000000) scale(0.100000,-0.100000)"
fill="#FFFFFF" stroke="none">
<path d="M111 476 c-38 -14 -60 -47 -61 -92 0 -55 24 -86 97 -124 60 -32 68
-39 71 -68 5 -45 -39 -86 -82 -76 -38 8 -53 20 -72 56 -21 41 -34 34 -34 -17
0 -53 13 -61 95 -65 75 -4 80 -2 114 32 26 26 31 40 31 78 0 58 -25 89 -104
126 -58 27 -72 48 -62 90 14 53 87 52 122 -1 25 -38 34 -31 34 26 0 45 -2 50
-17 44 -22 -9 -31 -9 -68 -2 -16 3 -45 0 -64 -7z"/>
</g>
</svg>
